@startuml
' ===================
' Classes and Attributes
' ===================
class "tree::Relation" {
 + tree:path
 + tree:remainingItems : int
 + tree:value
}
class "tree::Node" {
 + ldes:immutable : boolean
 + ldes:viewDescription
}
class "tree::Collection" {
 + tree:member
}
class "sh::NodeShape"
class "dcat::Distribution"
class "hydra::IriTemplate"
class "ldes::RetentionPolicy" {
 + ldes:fullLogDuration
 + ldes:startingFrom : dateTime
 + ldes:versionAmount
 + ldes:versionDeleteDuration : duration
 + ldes:versionDuration : duration
}
class "ldes::EventStream" {
 + ldes:pollingInterval : int
 + ldes:sequencePath
 + ldes:timestampPath
 + ldes:versionOfPath
 + ldes:versionSequencePath
 + ldes:versionTimestampPath
}
class "ldes::EventSource" {
 + ldes:transactionFinalizedObject
 + ldes:transactionFinalizedPath
 + ldes:transactionPath
 + ldes:versionCreateObject
 + ldes:versionCreatePath
 + ldes:versionDeleteObject
 + ldes:versionDeletePath
 + ldes:versionUpdateObject
 + ldes:versionUpdatePath
}
' ===================
' Relationships
' ===================
"tree::Relation" --> "tree::Node" : tree:node
"tree::Node" --> "tree::Collection" : tree:view
"tree::Collection" --> "tree::Node" : tree:shape
"dcat::Distribution" <|-- "ldes::EventSource"
"ldes::EventSource" --> "ldes::EventStream" : tree:viewDescription
"ldes::EventStream" --> "ldes::RetentionPolicy" : ldes:retentionPolicy
"tree::Relation" --> "hydra::IriTemplate" : hydra:iriTemplate
@endum
